<?xml version="1.0" encoding="UTF-8"?><svg id="Capa_1" xmlns="http://www.w3.org/2000/svg" viewBox="0 0 500 500"><defs><style>.cls-1{fill:#e3f450;}.cls-1,.cls-2{stroke-width:0px;}.cls-2{fill:#000;}</style></defs><circle class="cls-1" cx="250" cy="249" r="248"/><path class="cls-2" d="M395.8337,298.5732c-1.7253-9.6272-3.2522-19.2933-4.9128-28.9335-4.956-28.7135-10.106-57.3968-14.76-86.1578-.8799-5.4477-3.3169-8.027-8.1694-10.0111-35.5716-14.5401-71.2899-28.692-107.3188-42.0502-2.4111-.8928-3.1832-1.9669-3.1271-4.4729.1294-5.9998-.3968-12.0297-.0431-18.0122.3925-6.7331-2.4111-12.047-6.388-16.9383-7.4318-9.1312-21.6009-12.8665-32.5739-5.1328-7.5482,5.3226-11.4173,12.3964-12.1289,21.4198q-.3796,4.8136,4.5289,4.8179c.9489,0,1.9151-.1121,2.8424.0216,2.1308.3019,2.9977-.3364,2.8425-2.6699-.138-2.0747.1423-4.2098.4874-6.2801,1.1603-6.953,7.6561-11.6588,15.5925-11.4129,7.5698.2329,13.3496,5.2363,14.1562,12.254.9101,7.8761.2933,15.7909.5478,23.6842.0604,1.8289-1.1775,2.0359-2.3033,2.437-23.9085,8.6007-47.4979,18.0338-71.1001,27.4282-13.4574,5.3571-26.8243,10.9514-40.2515,16.3862-2.5491,1.0352-3.9035,2.6009-4.3909,5.4736-4.1753,24.6849-8.536,49.3396-12.7889,74.0116-2.5319,14.7212-4.9862,29.4597-7.4145,44.1982-.2329,1.4147-1.3457,3.2522,1.7339,3.5024,18.8922,1.5442,37.7671,3.3298,56.6636,4.8222,2.5535.2027,2.9719.992,2.9675,3.2824-.069,28.5582-.0474,57.1122-.0474,85.6704q0,4.089,4.2443,4.089h77.7685c26.0264,0,52.057-.0561,78.0834.0776,3.1314.0172,3.9812-.6513,3.9639-3.8992-.151-28.6617-.0949-57.3235-.0647-85.9896,0-1.363-.7591-2.9761,2.0057-3.1616,18.9137-1.281,37.7887-3.0063,56.6636-4.792,2.8468-.2717,3.1314-1.2163,2.6915-3.662ZM300.8811,179.587c.5478,1.3285.4702,2.0229-1.1603,2.4586-10.8263,2.8985-21.6268,5.9006-33.3762,9.1226,8.7171-11.1283,16.6838-21.5535,25.7546-31.625,3.3902,6.8495,6.0731,13.4488,8.7818,20.0438ZM250.8255,139.8314c.936-.3407,1.8418-.3407,2.7691-.0086,9.9594,3.5843,19.923,7.173,29.8867,10.7487,2.4715.8885.578,1.9022-.0086,2.6397-7.2377,9.1528-14.5185,18.2754-21.808,27.385-2.6311,3.2867-5.3355,6.5044-7.9623,9.7912-.798,1.005-1.3544,1.4018-2.368.1467-10.4468-12.9054-21.0359-25.6985-31.0427-38.9576-.0561-.0733-.0259-.2027-.069-.5909,10.1578-3.7008,20.3846-7.4188,30.6027-11.1542ZM204.117,179.354c2.6052-5.9437,5.1457-11.9176,7.5784-17.9303.9489-2.3378,1.8029-1.6736,2.9417-.2545,6.0386,7.5396,12.1031,15.0577,18.133,22.6016,1.7555,2.1998,3.4291,4.4686,5.6633,7.3843-7.1385-1.9582-13.479-3.6965-19.8109-5.4434-4.3392-1.1991-8.6568-2.4974-13.0218-3.5843-1.7469-.44-2.2602-1.005-1.4838-2.7735ZM165.5562,296.7745c-13.6127-1.2163-27.2254-2.4284-40.8381-3.6404q-4.3694-.3882-3.7914-4.736c.8325-6.2499.8195-6.1205,6.802-5.5339,12.3489,1.1991,24.7065,2.2645,37.0641,3.3557,6.4311.5694,5.383-.4701,5.6806,6.099q.0474,4.9085-4.9172,4.4556ZM334.529,224.031c.0259-2.9115-.8583-3.4808-3.5455-3.4075-6.8538.1812-6.8581.0518-6.8581,6.9616,0,52.7946-.0345,105.5891.0863,158.3837.0086,3.3212-.936,3.8863-4.0113,3.8776-45.0997-.1035-90.2037-.1035-135.3033,0-3.1573.0043-4.1882-.5909-4.1796-4.0243.1251-53.847.0647-107.6983.151-161.5454.0043-2.8381-.6254-3.7698-3.5973-3.6663-6.7848.2329-6.7934.069-6.7934,6.7287,0,15.3855-.0475,30.771.0518,46.1564.0172,2.3292-.4313,3.0581-2.9417,2.808-13.7249-1.3889-27.4627-2.6613-41.2134-3.787-2.2947-.1855-2.4888-1.0352-2.1653-2.8813,3.0322-17.3049,5.9825-34.6227,9.045-51.9233,1.9108-10.7703,4.0113-21.506,5.9264-32.272.2588-1.4579.8929-2.2127,2.1782-2.726,19.5823-7.8545,39.1603-15.7306,58.7426-23.598.2717-.1078.5737-.1423,1.6088-.3882-3.153,7.4318-6.0731,14.2683-8.9501,21.1264-.854,2.0315-1.4838,4.1537-2.3895,6.1594-.8368,1.8633-.3019,2.4499,1.6304,2.9632,16.136,4.309,32.2375,8.756,48.3562,13.1512q7.0091,1.9151,7.0134,9.1398c0,51.5264.0259,103.0572-.069,154.588-.0086,2.7864.647,3.4895,3.4118,3.3989,6.8409-.22,6.8452-.0647,6.8452-6.8452,0-51.6343.0259-103.2729-.069-154.9072-.0043-2.7432.8411-3.6792,3.4161-4.365,17.2574-4.6023,34.4502-9.4504,51.7033-14.057,2.2774-.6039,2.6397-1.3328,1.7987-3.3557-3.6232-8.7214-7.1644-17.4774-10.7358-26.2334.8842-.8454,1.5916-.0474,2.2774.2157,18.435,7.0522,36.8139,14.2381,54.9728,21.9805,3.2824,1.3975,5.0724,3.1918,5.7022,6.9487,4.5505,27.0788,9.3469,54.1101,14.0915,81.1544.2976,1.708.1596,2.5319-1.9927,2.7476-14.0397,1.4191-28.0924,2.7001-42.158,3.8302-2.506.2027-2.1178-1.2509-2.1178-2.7044.0043-16.5457-.0776-33.0915.082-49.6329ZM380.2671,293.3455c-13.6214,1.0179-27.2298,2.1696-40.8381,3.3385-5.0121.4313-5.0034.5219-4.9732-4.6109,0-.1035-.0043-.2113,0-.3149.2113-5.4175-.8929-4.9689,5.2924-5.5296,12.6552-1.143,25.3147-2.3249,37.9612-3.5843,5.2622-.5262,5.2536-.6384,6.1292,4.5721.0863.5176.1294,1.0438.1769,1.5657.4227,4.5548.8238,4.2227-3.7482,4.5635Z"/></svg>