<?xml version="1.0" encoding="UTF-8"?><svg id="Capa_1" xmlns="http://www.w3.org/2000/svg" viewBox="0 0 500 500"><defs><style>.cls-1{fill:#e3f450;}.cls-1,.cls-2{stroke-width:0px;}.cls-2{fill:#010101;}</style></defs><circle class="cls-1" cx="250" cy="249" r="248"/><path class="cls-2" d="M130.9045,181.0533c15.8097.0947,31.6109.086,47.4206-.0258,2.272-.0172,2.9003.5508,2.797,2.8057-.198,4.1826-.0861,8.3739-.0516,12.5565.043,4.3376,2.7023,7.2551,6.5063,7.2207,3.7953-.0344,6.36-2.9433,6.3858-7.3411.0344-6.8678.0258-13.7356,0-20.6034-.0258-5.0347-2.47-7.4358-7.5735-7.4531-8.1673-.0258-16.3433-.0086-24.5107-.0086-10.0005,0-20.001.0345-30.0015-.0086-5.2756-.0172-8.9247-3.4167-8.8731-8.1243.043-4.5872,3.6233-7.8575,8.7095-7.9608.6455-.0086,1.2909,0,1.9364,0h191.6187c1.0758,0,2.1602-.0603,3.2187.0516,3.1326.327,5.4392,1.9278,6.7215,4.8023,2.4786,5.5855-1.5836,11.214-8.176,11.2312-17.7461.043-35.4836.0086-53.2298.0086-6.885.0086-8.8559,1.945-8.8559,8.7526,0,54.6154,0,109.2394-.0086,163.8548,0,1.1876.0861,2.3753-.0602,3.5458-.4475,3.5027-2.3323,5.9211-5.7662,6.9883-3.2102.9897-5.9297,0-8.1846-2.3323-1.8331-1.902-2.1343-4.3031-2.1343-6.8506.0344-28.547.0258-57.094.0172-85.6324,0-5.4908-2.3495-7.8145-7.8489-7.8317-7.5219-.0086-15.0524-.0086-22.5742,0-6.1621.0086-8.2878,2.143-8.2878,8.3567v84.6685c0,6.1793-3.0036,9.9316-7.978,9.9919-5.0777.0603-8.1501-3.7523-8.1501-10.1382-.0086-6.4375,0-12.8749,0-19.3125,0-22.1095.0086-44.219-.0172-66.3199,0-4.3462-2.6852-7.2637-6.4805-7.2379-3.5889.0258-6.3773,2.797-6.3859,6.6785-.0344,29.726-.1204,59.4521.0516,89.1782.0603,10.8955,9.5185,19.8461,20.4313,20.0268,11.9541.198,21.3952-9.1484,21.421-21.3607.043-26.2922.043-52.5844-.043-78.8765,0-2.1946.4303-3.0638,2.7712-2.8229,2.1257.2238,4.3203.2668,6.4375-.0086,3.0638-.3873,3.8556.568,3.8384,3.7265-.1549,26.077-.1291,52.154-.0688,78.231.0344,12.35,10.0951,21.7652,22.3074,21.0854,11.2054-.6282,19.6051-9.9402,19.6051-21.8686.0172-52.7908.0344-105.5903-.0603-158.3812,0-2.6765.611-3.322,3.2962-3.2962,15.6979.1377,31.4043.1635,47.1022.0258,11.9627-.1119,21.2317-10.1985,20.612-22.1181-.568-10.9816-9.7681-19.6481-21.137-19.6739-24.941-.0603-49.8905-.0172-74.8401-.043-.9984,0-2.0913.3356-3.1241-.2152-.086-.0431-.1808-.1033-.2668-.1635.0603-.0516.1119-.1033.1635-.1463.6885-.6196,1.2909-1.136,1.8589-1.6954,8.8473-8.7784,12.2984-19.2608,9.1743-31.3957-3.1585-12.2295-11.2484-19.8719-23.3488-23.4004-1.093-.3185-2.4097.1291-3.2962-.9123h-9.6821c-.5077,1.1619-1.6954.6972-2.5216.9209-17.006,4.5183-27.1442,20.3366-23.9168,37.575,1.4114,7.5046,5.3187,13.5807,11.541,18.9424.1979.1721.3959.3442.6024.5164h-3.7523c-24.7259,0-49.4603.0086-74.1947-.0172-3.7179-.0086-7.2551.6369-10.5599,2.3582-8.7095,4.5269-13.0299,14.011-10.7665,23.5812,2.1602,9.1485,10.5083,15.8356,20.1817,15.8958ZM229.6098,94.1644c10.689.0689,19.3469,8.9161,19.2006,19.6223-.1377,10.5083-8.9419,19.0715-19.519,19.0027-10.6717-.0689-19.3297-8.9247-19.192-19.6395.1377-10.5168,8.9161-19.0543,19.5104-18.9854Z"/><path class="cls-2" d="M395.5732,350.7002c-1.4201,1.3167-2.7712,2.6938-4.3118,4.2257-.0947.0861-.1894.1808-.284.2754V103.6141c.1119.1119.2238.2152.3357.3184,1.8934,1.8245,3.4769,3.52,5.2842,4.9486,2.6852,2.1258,6.1449,1.7643,8.46-.6369,2.229-2.2979,2.7368-5.8006.4819-8.176-6.1707-6.515-12.1865-13.2192-19.2952-18.7875h-3.8642c-6.8334,5.2326-12.3672,11.8164-18.4949,17.7806-2.9003,2.8314-2.8573,6.558-.327,9.1829,2.6249,2.7196,6.3686,2.7024,9.4583-.1721,1.2996-1.2135,2.4528-2.5647,3.9158-4.1826.2324-.2582.4733-.525.7229-.7918v252.7576c-.3013-.3443-.5938-.6713-.8606-.9897-1.4545-1.6782-2.5302-2.995-3.7609-4.1568-3.0811-2.9004-6.8162-2.9262-9.4497-.2238-2.5474,2.6163-2.556,6.2998.2668,9.2001,5.1724,5.3101,10.4136,10.5512,15.7409,15.6978,3.0208,2.9175,6.4031,2.9347,9.4497,0,5.3359-5.138,10.5771-10.3792,15.7322-15.6978,2.8315-2.9175,2.8057-6.5924.2668-9.2001-2.6421-2.711-6.3514-2.6421-9.4669.2152Z"/><path class="cls-2" d="M331.0778,368.0762c-3.0294-2.9348-6.8248-2.9003-9.4583-.1808-2.5389,2.6249-2.47,6.2309.3098,9.2001,1.4114,1.5147,3.0208,2.8401,5.0175,4.6904h-195.2075c2.0311-1.7729,3.4769-2.8745,4.7421-4.1568,3.2962-3.365,3.4941-7.1432.6369-9.9058-2.7884-2.6852-6.4289-2.4614-9.6907.7401-4.983,4.897-9.9316,9.8198-14.82,14.8028-3.4597,3.5114-3.4425,6.8334.0431,10.3705,4.897,4.9831,9.8456,9.9144,14.8286,14.8028,3.2274,3.1671,6.928,3.3479,9.6907.6369,2.754-2.7196,2.5819-6.4289-.5078-9.6906-1.3253-1.3943-2.7196-2.7368-4.3462-4.3806h194.7428c-2.1258,1.9623-3.761,3.2876-5.181,4.8109-2.754,2.9606-2.7712,6.601-.1979,9.2001,2.5819,2.6077,6.317,2.7109,9.2173-.0861,5.3359-5.1379,10.5857-10.3792,15.7495-15.6892,3.038-3.1413,3.0122-6.5322-.0603-9.6907-5.0863-5.2326-10.2587-10.3878-15.5085-15.4741Z"/><path class="cls-2" d="M187.4391,232.5877c3.4339.043,6.3858-2.7626,6.515-6.1965.1377-3.5458-2.797-6.6182-6.3687-6.6612-3.4339-.0431-6.3858,2.7626-6.5063,6.1965-.1377,3.5458,2.797,6.6182,6.36,6.6613Z"/></svg>