<?xml version="1.0" encoding="UTF-8"?><svg id="Capa_1" xmlns="http://www.w3.org/2000/svg" viewBox="0 0 500 500"><defs><style>.cls-1{fill:#e3f450;}.cls-1,.cls-2{stroke-width:0px;}.cls-2{fill:#010101;}</style></defs><circle class="cls-1" cx="250" cy="249" r="248"/><path class="cls-2" d="M351.7607,251.6041c5.6753,5.2312,9.0415,5.2135,14.4415-.1865,14.0241-14.033,28.0215-28.1015,42.0722-42.1078,1.7585-1.7497,3.2329-3.5882,3.8013-6.0484v-3.9967c-.6572-2.1404-1.8474-3.9612-3.224-5.7109-13.9442-17.7721-27.4265-35.8995-41.5838-53.494-8.473-10.5247-18.9356-18.5448-31.5031-23.6873-7.6204-3.1175-15.4363-5.4178-23.7051-5.9329-2.3803-.1421-3.8014-.9592-4.6007-3.7037-3.6859-12.5497-11.1731-21.1738-24.9751-22.6659h-81.7464c-.1332.5329-.5507.5507-.9948.6483-12.079,2.7444-19.6284,10.3116-22.4261,22.2307-.7815,3.3573-2.0961,4.0056-5.0892,4.2987-22.9501,2.2737-41.7436,12.4787-56.0341,30.5883-14.2728,18.0919-28.2436,36.4235-42.321,54.6664-2.9931,3.8813-2.8421,6.8655.5684,10.2938,15.0899,15.1698,30.1975,30.313,45.3407,45.4384,3.4017,3.4017,6.8655,3.3662,10.5159.0711,2.0072-1.8118,3.979-3.6681,6.4836-5.9773v4.0233c0,11.2086-.0267,22.4172.0177,33.6258.0178,4.4764,2.5135,7.2208,6.4215,7.2918,4.0145.08,6.6701-2.7444,6.8389-7.3096.0444-1.1102.0177-2.2204.0177-3.3306,0-48.8223.0178-97.6535-.0711-146.4758-.0088-2.5312.7639-3.7302,3.0464-4.6184,6.1017-2.3625,12.3632-3.9079,18.8202-5.0625,4.7605-.8438,6.9277.5507,9.4411,4.7161,9.7787,16.1912,20.1791,32.0182,30.3752,47.9608,3.5349,5.5243,7.9757,5.8618,12.4077.9681,3.597-3.979,7.1319-8.0023,11.1997-12.5852v192.0829c0,5.2135-.0622,10.427.0355,15.6405.0267,1.7053-.151,2.5224-2.2381,2.5224-26.9114-.08-53.8227-.0711-80.734-.0089-1.954.0089-2.3448-.6128-2.327-2.4424.0888-9.0948.0711-18.1984.0267-27.2933-.0178-5.0092-2.7711-8.1799-6.8478-8.0645-3.9878.1155-6.4126,3.1086-6.4214,8.0645-.0267,11.3152-.0089,22.6304-.0089,33.9545.0089,7.1053,1.9628,9.0504,9.0681,9.0504,57.0378,0,114.0756.0177,171.1134-.0444,2.2737,0,3.8901.5595,5.5066,2.2026,8.6951,8.8727,17.5324,17.5945,26.2541,26.4228,2.8599,2.8954,5.6754,5.7908,9.5211,7.3806h5.9773c3.3306-.453,5.8086-2.3359,8.1089-4.6451,11.6794-11.7504,23.3853-23.4742,35.1091-35.1713,2.3092-2.3092,4.1832-4.796,4.6362-8.1267v-5.9951c-.5151-2.9043-1.8207-5.3556-3.9168-7.4606-19.1133-19.131-38.1644-38.3331-57.3842-57.3487-2.0694-2.0517-3.0553-4.0056-3.0375-6.9099.1066-15.9781.0444-31.9472.0622-47.9253.0089-.8438-.2753-1.7408.302-2.6023,1.4388.6661,2.5401,1.7585,3.6592,2.7888ZM134.6316,230.1993c-2.7178,2.2737-5.2757,4.7428-7.7803,7.2385-1.2168,1.2168-1.954,1.1724-3.1707-.0533-11.6172-11.7326-23.2876-23.412-34.9936-35.0558-1.0658-1.0658-1.1901-1.7763-.2309-3.0109,13.5445-17.3813,27.0002-34.8248,40.5801-52.1884,2.0694-2.6468,4.4764-5.0625,7.7448-7.3451v3.4017c0,27.2843-.0178,54.5687.0444,81.853,0,2.1582-.4885,3.7392-2.1938,5.1602ZM302.0325,129.9525c3.0641-5.2402,6.0217-6.3681,11.3596-5.3201,6.4303,1.2612,12.6918,2.8687,18.7136,5.4711,1.3145.5684,1.9184,1.35,1.7141,2.78-.0711.5418-.0089,1.1102-.0089,1.6609,0,54.8174-.0266,109.6437.08,164.4611.0088,2.9842-.7639,3.597-3.6148,3.5438-9.8497-.1688-19.7083-.0444-29.567.0355-1.0835.0089-1.874-.2664-2.7089-.8882-15.0988-11.2708-31.2455-12.9494-48.4137-5.2846-.1688.08-.4174.0089-.8349.0089v-130.7286c3.8635,4.3431,7.3451,8.2955,10.8623,12.2211,4.6451,5.1869,9.0681,4.8138,12.8251-1.0747,9.9385-15.5783,20.2679-30.9347,29.5936-46.8861ZM283.914,98.4138c9.228,3.3839,13.1093,14.6103,7.7447,23.4031-5.8707,9.6188-12.079,19.0333-18.1363,28.5367-2.7888,4.3786-5.5865,8.7484-8.5974,13.4734-4.6806-5.2668-9.0682-10.2405-13.5178-15.1609-.8793-.977-.9859-1.6964-.2398-2.8687,9.8586-15.4718,19.6728-30.9614,29.4425-46.4953.9414-1.4921,1.883-1.4033,3.304-.8882ZM232.5338,148.6394c-4.4764,4.8849-8.8461,9.8853-13.5889,15.2231-9.2724-14.5925-18.5715-28.7054-27.3022-43.1824-4.8937-8.1-.4352-18.9711,8.2688-22.2485,1.6342-.6128,2.5313-.4441,3.5083,1.1013,9.6543,15.3475,19.3708,30.6416,29.0873,45.9358.7017,1.1013,1.1546,1.9362.0267,3.1707ZM217.8347,97.5079h48.2005c-7.9935,12.6296-15.8715,25.0728-24.087,38.0488-8.1711-12.8872-16.0491-25.3304-24.1136-38.0488ZM302.9828,375.7248c-17.1504,0-34.3008-.0356-51.4512.0444-2.1404.0177-3.0286-.2487-3.0108-2.7622.1243-19.282.0977-38.5729.0177-57.8638-.0089-1.7852.6128-2.8066,1.9629-3.8014,10.9155-8.0911,26.5294-8.3043,37.6048-.5329,1.3322.9326,1.7675,1.874,1.7497,3.5083-.0977,12.754-.0178,25.4991-.0888,38.2443-.0177,4.0145,1.3234,7.3362,4.1566,10.125,4.1921,4.1122,8.3487,8.2511,13.1892,13.0383h-4.13ZM396.604,372.2076c1.5365,1.5276,1.5276,2.3181-.0089,3.8369-11.182,11.0665-22.284,22.2041-33.3416,33.3949-1.4388,1.4566-2.2204,1.723-3.828.0977-18.1629-18.3316-36.4235-36.5834-54.6487-54.8529-.8438-.8438-1.7408-1.5543-1.7319-3.0198.0711-8.6152.0356-17.2304.0356-26.7159,3.295,3.3573,5.8885,6.0928,8.5885,8.7129,3.0819,2.9843,7.0875,3.1263,9.7609.4796,2.7444-2.7089,2.6823-6.6612-.3108-9.7787-2.6023-2.7178-5.3556-5.2846-8.704-8.5619h8.8106c5.5332,0,11.0665.0533,16.5998-.0355,1.6786-.0356,2.8687.4352,4.0677,1.6431,18.1985,18.305,36.4235,36.5834,54.7108,54.7996ZM346.8491,215.5713c.7461-25.0284.2487-50.0924.2487-75.8669,4.1388,3.1796,7.1941,6.4925,9.9652,10.0629,12.6919,16.3688,25.3126,32.7821,38.04,49.1243,1.2079,1.5543,1.2079,2.3625-.2132,3.7747-11.5728,11.4662-23.0745,23.0034-34.5229,34.5762-1.2967,1.3145-2.2116,1.6076-3.3751.0622-.1243-.1776-.3019-.3286-.4885-.4441-7.727-5.0625-9.9296-11.9369-9.6543-21.2892Z"/><path class="cls-2" d="M150.0281,314.5566c-.0697-3.5027-3.1006-6.5116-6.5988-6.5508-3.5244-.0396-6.5165,2.8809-6.6084,6.4502-.0987,3.8356,2.7141,6.7755,6.5035,6.7973,3.7307.0215,6.7768-3.0214,6.7037-6.6966Z"/></svg>