<?xml version="1.0" encoding="UTF-8"?><svg id="Capa_1" xmlns="http://www.w3.org/2000/svg" viewBox="0 0 500 500"><defs><style>.cls-1{fill:#e3f450;}.cls-1,.cls-2{stroke-width:0px;}.cls-2{fill:#000;}</style></defs><circle class="cls-1" cx="250" cy="249" r="248"/><path class="cls-2" d="M252.0488,398.2383c-56.8428-.0039-106.9546-34.9062-127.6665-88.9199-9.4321-24.5977-11.2041-51.6689-5.1245-78.2852,6.0742-26.5908,19.4048-50.2061,38.5513-68.293,21.6533-20.4521,47.3618-32.8633,76.4121-36.8896,6.3691-.8809,12.7754-1.3271,19.0396-1.3271,21.249,0,42.1162,5.1279,62.0205,15.2412,4.9082,2.4863,6.7139,7.1475,4.4941,11.6006-1.4512,2.9141-4.0938,4.585-7.251,4.585-1.5557,0-3.1338-.4043-4.6914-1.2031-17.4199-8.9482-36.3086-13.4863-56.1416-13.4863-.6348,0-1.2725.0049-1.9092.0137-55.7319.8223-105.2012,42.6875-115.0708,97.3828-6.3262,35.083,1.3252,67.3916,22.7407,96.0273.2612.3398.5288.6484.8521,1.0195.1792.207.3779.4346.6021.7002l1.6279,1.9268.9155-2.3506c7.3755-18.9336,18.8223-33.7451,34.9956-45.2803,3.0063-2.1406,6.6108-4.5771,10.543-6.4092,1.1338-.5303,2.2612-1.1523,2.54-2.4072.2734-1.2305-.4775-2.3398-1.2485-3.2617-12.5928-15.041-16.8291-35.1006-11.333-53.6602,5.5068-18.5967,20.0171-33.1465,38.8145-38.9189,5.3989-1.6562,10.98-2.4961,16.5874-2.4961,13.8291,0,27.3037,5.0654,37.9414,14.2627,10.8506,9.3809,17.7285,22.2812,19.3691,36.3262,1.9453,16.6738-2.5635,31.7266-13.3994,44.7402-.665.8018-1.4141,1.708-1.1807,2.8838.2158,1.0908,1.1533,1.7188,2.041,2.1895,21.2314,11.2617,36.5479,28.2832,45.5205,50.5918.1182.2861.25.5479.4326.9033.0938.1826.2021.3945.332.6562l1.0625,2.1514,1.4688-1.8975c.333-.4307.6631-.8457.9873-1.2529.7139-.8984,1.3877-1.7461,2.0234-2.6602,25.0791-35.8057,30.1152-74.6699,14.9658-115.5078-1.2861-3.4668-2.5303-9.709,3.585-12.5752,1.2461-.584,2.5205-.8799,3.7852-.8799,3.3994,0,6.3232,2.1299,7.8203,5.6973,4.8672,11.5996,8.0283,23.5479,9.3965,35.5127,3.6699,32.2432-2.8555,62.0312-19.3945,88.5361-21.2549,34.0693-51.6484,55.0859-90.3369,62.4658-8.8623,1.6904-17.8496,2.5479-26.7119,2.5479h-.0078ZM227.1997,294.0723c-.7715,0-1.5356.1514-2.3354.4619-25.1733,9.7812-41.9775,27.9072-49.9448,53.8721-.8232,2.6904-.2676,4.4951,1.9185,6.2314,21.7759,17.3467,47.1782,26.3457,75.5,26.7461,28.5225-.4375,53.9814-9.4844,75.7148-26.8896,2.0078-1.6016,2.5342-3.248,1.8154-5.6807-7.668-25.8389-24.3613-44.0703-49.6172-54.1904-.8652-.3447-1.6982-.5117-2.5469-.5117-1.0059,0-2.0029.2256-3.2344.7314-7.3818,3.0254-14.8379,4.5586-22.1602,4.5586-7.4121,0-14.896-1.5723-22.2432-4.6738-1.043-.4463-1.9561-.6553-2.8667-.6553ZM252.1943,200.5215c-22.4614,0-40.7988,18.208-40.877,40.5889-.0376,11.1592,4.249,21.6348,12.0708,29.4971,7.6782,7.7178,17.8633,11.9785,28.6792,11.9971,22.7334,0,41.2471-18.3506,41.3242-40.9062.0371-10.9785-4.21-21.3037-11.958-29.0732-7.7461-7.7676-18.0801-12.0664-29.0977-12.1035h-.1416Z"/><path class="cls-1" d="M253.2601,126.0231c21.0125.0008,41.651,5.0743,61.3454,15.0813,4.1747,2.115,5.6772,5.8803,3.8277,9.5925-1.1884,2.3854-3.3418,3.7534-5.9082,3.7534-1.3157,0-2.6643-.3492-4.0057-1.0367-17.6349-9.0594-36.7545-13.653-56.828-13.653-.6417,0-1.2865.0046-1.9318.0139-56.4351.833-106.5298,43.2288-116.5247,98.6167-6.4027,35.5091,1.341,68.209,23.0403,97.2236.2858.3716.5672.695.8931,1.0695.1761.2024.3708.426.5913.6873l3.2558,3.8575,1.8321-4.7037c7.266-18.6538,18.5408-33.244,34.4667-44.6026,2.9524-2.1021,6.4859-4.491,10.313-6.2739,1.0149-.4753,2.904-1.3599,3.3656-3.4404.4698-2.1176-.954-3.821-1.5636-4.5503-12.4515-14.8719-16.4771-33.9233-11.0444-52.2694,5.364-18.1141,19.5011-32.2865,37.8161-37.9109,5.2572-1.613,10.6902-2.4309,16.1481-2.4308,13.4689,0,26.5952,4.9357,36.9608,13.8976,10.5651,9.1344,17.2629,21.694,18.8596,35.3649,1.8953,16.2508-2.4995,30.9221-13.0675,43.6126-.7431.8972-1.8661,2.2531-1.4943,4.1282.3843,1.9381,2.1463,2.8725,2.8094,3.2242,20.9109,11.0906,35.9945,27.8547,44.8438,49.856.1449.3495.2979.6475.475.9926.0913.1778.1976.3847.3242.6411l2.1245,4.3046,2.9381-3.7962c.3298-.4261.6559-.8363.9756-1.2384.7289-.9171,1.4174-1.7833,2.0749-2.7283,25.3819-36.238,30.4778-75.5669,15.1461-116.894-1.9662-5.2998-1.0188-8.8981,2.8147-10.6946,1.0465-.4901,2.1061-.7385,3.1493-.7385,2.7754,0,5.1819,1.7861,6.4373,4.7777,4.8123,11.4699,7.9376,23.2803,9.2886,35.1017,3.631,31.8989-2.821,61.3625-19.1768,87.573-21.0234,33.7001-51.0833,54.4879-89.3447,61.7861-8.7696,1.6729-17.6649,2.5211-26.4386,2.5211-27.4828,0-53.8439-8.1841-76.2334-23.6677-22.5959-15.6262-39.8969-37.857-50.0325-64.289-9.3254-24.3195-11.0761-51.0889-5.0628-77.4144,6.0076-26.3007,19.1889-49.6545,38.1185-67.5366,21.4223-20.2333,46.8539-32.5117,75.5876-36.494,6.3032-.8718,12.6398-1.3138,18.8338-1.3135M252.1227,284.1042c11.4166,0,22.1422-4.3968,30.2009-12.3804,8.0657-7.9905,12.529-18.6519,12.5678-30.0204.0388-11.3801-4.3633-22.0832-12.3955-30.1375-8.0286-8.0508-18.7377-12.506-30.1529-12.5447l-.1474-.0003c-11.1789.0007-21.7702,4.4029-29.8229,12.3955-8.0575,7.9974-12.5164,18.5409-12.5552,29.6884-.0391,11.5612,4.4028,22.4146,12.5076,30.5609,7.9612,8.0018,18.523,12.4193,29.7376,12.4385h.0598M252.361,382.8837l.0441-.0007c28.8182-.4417,54.5852-9.5991,76.5805-27.2142,2.5034-1.9966,3.2194-4.242,2.3204-7.2836-7.8047-26.2989-24.7943-44.8553-50.5016-55.1557-1.0435-.4161-2.0579-.6184-3.1013-.6184-1.1947,0-2.4038.2687-3.801.8435-7.2025,2.9509-14.4672,4.4471-21.5924,4.4471-7.2111,0-14.4986-1.5329-21.6474-4.5508-1.2425-.5312-2.3429-.7787-3.463-.7787-.9607,0-1.9022.1844-2.8783.5637-25.6235,9.9562-42.7269,28.4041-50.8358,54.8325-1.0087,3.2934-.2625,5.7125,2.4167,7.8414,22.0441,17.5601,47.7538,26.6689,76.4149,27.0734l.0441.0006M253.2602,123.0231c-6.3461-.0002-12.7583.4446-19.2449,1.3418-29.6748,4.1127-55.3955,16.6559-77.2365,37.2847-39.439,37.2567-53.2506,97.4735-33.7969,148.2061,21.2091,55.3095,72.1081,89.8826,129.0671,89.8826,8.8857,0,17.9092-.8399,27.0007-2.5742,39.5042-7.5353,70.0464-29.0313,91.3279-63.1452,17.1035-27.4086,23.2586-57.4658,19.6123-89.5001-1.4176-12.4033-4.6629-24.387-9.503-35.9231-1.7739-4.2272-5.311-6.6171-9.2036-6.6171-1.4488,0-2.9468.3311-4.4215,1.0216-5.353,2.5086-6.8358,7.7684-4.3552,14.455,15.0705,40.6234,10.044,78.6727-14.7907,114.1295-.8953,1.287-1.9118,2.4901-2.9656,3.8516-.3544-.7181-.5596-1.0724-.7181-1.4548-9.1486-22.7457-24.5642-39.8773-46.2094-51.3574-1.8466-.9792-1.4455-1.5388-.4104-2.7885,11.0977-13.3265,15.7513-28.6023,13.737-45.8738-3.5286-30.2116-29.8776-51.9149-58.8002-51.9151-5.6285,0-11.3539.8218-17.0282,2.5629-40.9964,12.5898-55.7312,62.082-28.192,94.9742,1.5668,1.8745,1.1378,2.4528-.774,3.348-3.8236,1.7812-7.3488,4.1034-10.7807,6.5468-16.3575,11.6665-28.1081,26.9236-35.5221,45.9576-.6061-.7181-1.0258-1.1657-1.3988-1.6507-21.2163-28.3692-28.7515-60.0024-22.4659-94.8623,9.7455-54.0059,58.6501-95.338,113.6166-96.1494.6297-.009,1.26-.0135,1.8875-.0135,19.5306,0,38.0094,4.3582,55.4571,13.3215,1.807.9261,3.6388,1.3683,5.3766,1.3683,3.6342,0,6.8585-1.9332,8.5934-5.4157,2.5833-5.1852.4943-10.7433-5.1572-13.6064-20.0204-10.1727-40.9458-15.4044-62.7011-15.4052h0ZM252.1227,281.1041h-.0526c-21.7386-.0373-39.3271-17.9522-39.2525-39.9892.0744-21.3942,17.9156-39.0927,39.3782-39.0941.0459,0,.0894.0001.1353.0002,21.9531.0746,39.6348,17.803,39.5603,39.6721-.0746,21.8504-17.8138,39.4109-39.7688,39.4109h0ZM252.3592,379.8834c-27.763-.3918-52.719-8.9995-74.5881-26.4202-1.7252-1.3708-2.0516-2.5459-1.4174-4.6163,7.843-25.5621,24.1165-43.2252,49.0539-52.9147.6346-.2466,1.2186-.36,1.7918-.36.7494,0,1.4805.1937,2.2836.5372,7.5967,3.207,15.2104,4.7924,22.8269,4.7924,7.5776,0,15.158-1.5689,22.7298-4.6711.9415-.3873,1.7931-.6195,2.6638-.6195.6386,0,1.2874.1248,1.9899.405,24.788,9.9321,41.1175,27.5485,48.7368,53.2226.5596,1.8931.2052,2.8724-1.3149,4.0847-21.8224,17.4766-46.7597,26.1309-74.7559,26.56h0Z"/><path class="cls-2" d="M341.293,210.4062c-4.8926-.0156-8.3271-3.8232-8.3506-9.2598-.0049-1.3867-.0225-2.7764-.04-4.166-.0469-3.7734-.0957-7.6748.1221-11.4736.0684-1.1865.0215-2.6826-.9561-3.7188-.9189-.9736-2.2227-1.1055-3.377-1.1055-.1982,0-.4062.0049-.624.0127-2,.0713-4.1426.1045-6.7393.1045-1.8154,0-3.6309-.0156-5.4473-.0322-1.1641-.0098-2.3291-.0205-3.4932-.0264-2.7295-.0166-5.1553-.9639-6.8301-2.667-1.5117-1.5391-2.2979-3.5488-2.2715-5.8125.0557-4.7617,3.8486-8.2412,9.0186-8.2725,2.9209-.0195,5.8418-.0391,8.7646-.0391,3.0391,0,5.7129.0215,8.1729.0664l.2061.002c.8398,0,1.9033-.1016,2.6787-.8926.791-.8086.8711-1.9385.8525-2.833-.1055-5.3115-.0693-10.7236-.0352-15.958l.0068-.9824c.0244-5.2529,3.4199-8.9648,8.2568-9.0293l.1201-.001c4.8213,0,8.3438,3.8213,8.376,9.085.0078,1.0908.0186,2.1816.0293,3.2725.042,4.2744.0859,8.6943-.085,13.0078-.0439,1.0635.0186,2.4062.9131,3.3389.8506.8867,2.041,1.0068,3.0947,1.0068.1426,0,.291-.0029.4463-.0078,2.167-.0635,4.4648-.0928,7.2295-.0928,2.1562,0,4.3125.0186,6.4688.0361l2.5938.0205c5.1768.0322,8.9502,3.5342,8.9746,8.3271.0244,4.8164-3.7061,8.3594-8.8701,8.4248-1.0957.0146-2.1885.0195-3.2822.0195l-5.0371-.0107c-.8672,0-1.7363.0068-2.6064.0146-.8633.0068-1.7266.0137-2.5908.0137-1.4375,0-2.6084-.0205-3.6855-.0645-.1172-.0049-.2305-.0068-.3389-.0068-.6943,0-1.7031.0879-2.4473.8447-.7676.7812-.8496,1.8643-.835,2.7207.0908,4.9912.0645,10.0713.0381,14.9834l-.0098,1.9561c-.0244,5.4131-3.4766,9.1943-8.3955,9.1943h-.0156Z"/><path class="cls-1" d="M341.3287,135.8224c4.0206.0005,6.8481,3.1234,6.875,7.597.0074,1.0918.0183,2.1843.0291,3.2772.0422,4.2556.0858,8.6561-.0826,12.9247-.0528,1.2576.0275,3.0864,1.3286,4.4433,1.2476,1.3011,2.8878,1.468,4.1773,1.468.1566,0,.32-.0027.4884-.0077,2.152-.0626,4.436-.0918,7.1877-.0918,2.1383,0,4.2771.0176,6.4148.0352l2.6397.0204c4.3159.0269,7.4626,2.9014,7.4822,6.8352.0198,3.9543-3.0878,6.8635-7.392,6.9173-1.0998.0148-2.1994.0192-3.2992.0192-.8299,0-1.6599-.0026-2.4899-.005-.836-.0026-1.672-.0051-2.5079-.0051-.871,0-1.7435.0071-2.6167.0142-.8582.007-1.7171.014-2.5757.014-1.4189,0-2.572-.0201-3.6291-.0632-.1389-.0056-.272-.0084-.3995-.0084-.5557,0-2.2468,0-3.5183,1.2933-1.1713,1.1915-1.2828,2.7375-1.2647,3.8.0905,4.9966.0635,10.0914.0373,15.0183l-.0098,1.8869c-.0204,4.5341-2.8559,7.7008-6.9036,7.7008-4.0174-.0131-6.8375-3.2067-6.8579-7.7634-.0049-1.3911-.0223-2.7836-.0396-4.1764-.0467-3.7496-.095-7.6267.1186-11.3721.0794-1.3722.0246-3.3665-1.3625-4.8361-1.318-1.3965-3.0789-1.5756-4.4657-1.5756-.2162,0-.4433.0048-.6776.0134-1.9858.0707-4.1127.1036-6.6935.1036-1.8202,0-3.6412-.0162-5.4625-.0322-1.1544-.0103-2.3089-.0204-3.4612-.0266-2.3289-.014-4.3783-.8021-5.7706-2.2189-1.2261-1.2476-1.863-2.8882-1.8418-4.7435.0463-3.9707,3.1423-6.7628,7.5319-6.7899,2.9103-.0192,5.8228-.0384,8.7368-.0384,3.0396,0,5.7089.0216,8.1508.0659.0833.0018.1643.0027.2434.0027,1.045,0,2.5707-.1393,3.7499-1.3439,1.1961-1.2219,1.3034-2.8187,1.2802-3.909-.1049-5.3094-.0687-10.7278-.0337-15.9678l.0063-.9413c.0203-4.3829,2.8067-7.4809,6.7755-7.5338l.1017-.0007M341.3287,132.8224c-.047,0-.0938.0003-.141.0009-5.6048.0746-9.7083,4.4764-9.7362,10.5196-.0374,5.6608-.0839,11.3216.028,16.9824.036,1.6912-.4401,2.1936-2.0307,2.1936-.0583,0-.1181-.0007-.1795-.002-2.7385-.0496-5.4773-.0665-8.2147-.0665-2.9212,0-5.8409.0192-8.7583.0385-6.0432.0374-10.4449,4.1501-10.5102,9.7549-.0652,5.7167,4.4111,9.96,10.5941,9.9973,2.981.0159,5.9626.0589,8.9418.0589,2.2682,0,4.5347-.0249,6.8002-.1055.1995-.0073.3897-.0115.5708-.0115,2.1139,0,2.9878.5668,2.8331,3.2383-.2984,5.2318-.1026,10.4915-.0839,15.7326.028,6.2484,4.15,10.7341,9.8481,10.7527h.018c5.7076,0,9.8674-4.4641,9.8954-10.6873.028-5.6515.0746-11.3123-.028-16.9731-.0263-1.5426.4005-2.039,1.7835-2.039.0886,0,.181.0021.2776.006,1.248.0508,2.4992.0656,3.751.0656,1.7322,0,3.4655-.0283,5.1924-.0283,1.6659,0,3.3319.0101,4.9978.0101,1.1132,0,2.2262-.0045,3.3395-.0195,5.9592-.0745,10.3797-4.3365,10.3517-9.932-.028-5.5955-4.4577-9.7828-10.4636-9.8201-3.0223-.0207-6.0483-.0557-9.0732-.0557-2.426,0-4.851.0225-7.275.0931-.1392.0042-.2729.0064-.4011.0064-1.8989,0-2.6046-.4966-2.5086-2.7855.2145-5.437.0932-10.9019.056-16.3482-.037-6.1321-4.2203-10.5764-9.8749-10.5765h0Z"/></svg>